<svg xmlns="http://www.w3.org/2000/svg" width="1876" height="904" viewBox="0 0 1876 904" content='&lt;mxfile&gt;&lt;diagram name="webapp | prod | state"&gt;&lt;mxGraphModel dx="1876" dy="904" grid="1" gridSize="10" guides="1" tooltips="1" connect="1" arrows="1" fold="1" page="1" pageScale="1" math="0" shadow="0"&gt;&lt;root&gt;&lt;mxCell id="0"/&gt;&lt;mxCell id="1" parent="0"/&gt;&lt;mxCell id="n0" value="app" style="shape=stencil(zVhbcuIwEDwNv4Nm9P7O5gK5gZc4wbXEpgx5cPsdIz+QvMiQ2q1afsCDWmr1TI8EK/lw2Bb7ckWiOOzLzXElf6yIPoq2Kn7uOEz8zTYEURNYH0J18VaG6ENTH4uqLluOPpWv1eHYnsIY/tT8Kj+r52M/QVVvy7Y6hm8/+0ktgbJdSD6u5MOmqWtmUTX1gcesQ/ClacvXtnmvn8Pzofgop2/3RTd/9+mtOce/wswawYalTnP+PXbz3gYIhiFKg+tBX9SHBJDrQzKEpAU5TI3zuU89EpUHY/qYHGISXERhx9pNpCVgxNnJkdAVyiKmK0D5hC0IH5O1DoyKuXIWdELVOKAcUzttrucKZPLqCtA+UZcFp5gv5w1VTJgGzQa6IqYqMjyRJdEqIiqyLJE0JDWAUoDDmCbKKTWnOBcDS5oW7kGsmc5xZc1lXADGgtZ5vqODLghbBKESwjy5SSuB92Bi0m5K0sDaKZAqR1sqULHE5zrPew0lAeqENxnwNuHNCRxFGbDKgaXEbpcWlNctv2sOF91jPbWPl2q3u2g6/LRpdk3X18L7ecYVSXF+RZN2g4vdflt0ffT83ptRxOa91qu8AqeWmlUsOgs8qDdABALl8sT9yMoIohXYXEEaAooR7OFsLVg9enVaIjPem7SNMAApa2hu7PEa1o/d6ypEx2IZTBtrAhF+lGYgJpZWceCSzeNojCuGN1Oz683GlW3/jdnsf2u2tjwc+ZC/DPBVZHwKN4lbvPlyft3kuS7DPtYRCSTdl+HOdPkUf6MqmJmJqUnm6v52ufKApB2YhdpjSGxWtq/ABV4OZ4ole0nKJM6T0+DjRfnUWupBGF/92GbW3IXQcuT9R4SbbopDZ7T5rHo7ngbTGllWHQLTfTh9u3QoxDh+SBjf0nIl7vwMwenyC4i0G6PM1gQXXoygvNiION1Yx0WEX4BoP9vIHeLxFYpS6WyOpUm35fn0vAvAm5I5QEfJp1bAnGMdzRB8Vi4gFKXbSNbI6sZ3BqlmfTV77/3OXYZ/1sy6al7tu+8y3U5mLTVnnq6xpw3V5ccbSvvpwh6kSYSiVKhbD911+rt6Hf4KkI+/AQ==);html=1;fillColor=#A142F4;strokeColor=none;verticalLabelPosition=bottom;verticalAlign=top;labelPosition=center;align=center;" vertex="1" parent="1"&gt;&lt;mxGeometry x="318" y="80" width="168" height="104" as="geometry"/&gt;&lt;/mxCell&gt;&lt;mxCell id="n1" value="app" style="shape=stencil(zVhJdtswDD2NtwgJztu2OUCPoCZK4lfH8pOdwbcvbEkcwJjOa7qoN7YggvgEPgZ6pb7vn7pdv0LR7Xf93WGlfqwQX7tx3f3akBjpzdMklAbB4yTads/9JP22fvz50o/HSb4/jMPv/m19f5iV1tunflwfprdv80YOQbuTSN2u1Pe7Ybsly+thu6c1N5PwYRj7x3F42d5Pz/vutU9vd91p/9Ov5+Esf592NhLcZOpYY551717GSUVOS7QBPyu94ywSgH4WqUmkHKhla1nvfZw1pQ5g7SxTi0yBLyBs1tsMtAJZYPYqAroAWZRwBejA0IIIJVjnweoSK0XBMKjWA7aQunS4GSugbXtXgAnMuya6bcFLcZO6BIyLzxa4ooQqGjglucToAqhoopRogHFAKgFeljClSqE5lrFYUGIyPCuRz0wLK/lclQSwDoxp440ZlAF2EoRmgGlzy5lAZ7AlaJ+CtKD2GpRuwVYadOniM89DG7dCkIbhRgvBMdwUwOiURVd7cDzd8hRUl1N+M+yz6nGTysfDerPJig493Q2bYSTR9H3ecYVKnD/FpqfF3Wb31J1q5/l7TkZRJu+lWiUlBd5fq1al1y2vFeEKu6xI8Z8lCKqh4AOYsoRqCk+TCcLFBbOK0bEifaxiHKAqjy50jPi/Jpz7bwk39vsDNbpcQC04Pk3d9DP8fDh/PsW7oMGWtKPeEFQzwlSev6xCFaXdiEOIwJZQEb3RlJHK4c+K3sWcixUtgGQVLcjIuY+jVLrJYyzCS65RmJupU2lQIRctTnvyovyixglVuwV7m/ot8lgsbs3BL/FQFf1JZBRza+WVplud40UvCAhtYjgDgjUN6n+W9TonYjGIxAhpwsHoQKmrVmdacc03niW6zf76kLVGm3x0Yiy9FMDpdvoQNXhrFQH4CJNER1ltnXkpHmBxLxXNK7U2s7bwxQBLXzpZYJMe9SjHomRUOr+qRJdpopl9anaOOSATLQBya0kRZeWAK7Nubg0TdXXlgWhNxhSQbNrNg6IuUqDFISlpPbsNSRobfTuIMl0UIo0k75bSslYpFSgWw7OMdUqyj83BgKYAz5q8oPrgrzUO1uKpSQhfu52Vh5M1pxhqmmYsb/CZ7FLoQ3XNoSHIML9looQhs5eqLIdAFUW00z83h7GZeHYxpF7AyWdCrL/HdENDVwLIRBfT34BVFXNiHiXyJNlR1gZTBip2O6VkClfuRbm9iCFNDAmDqKcI6omsDFJeMghU0BCbN08EZPy1V4dUUgrcc6c7PL/N0TphP+BP4BwOEeUxOzH6vxpSb/h/MTfTX0bq9g8=);html=1;fillColor=#00ACC1;strokeColor=none;verticalLabelPosition=bottom;verticalAlign=top;labelPosition=center;align=center;" vertex="1" parent="1"&gt;&lt;mxGeometry x="50" y="80" width="168" height="104" as="geometry"/&gt;&lt;/mxCell&gt;&lt;mxCell id="n2" value="asset_metadata" style="shape=stencil(zVhJdtswDD2NtwgJztu2OUCPoCZK4lfH8pOdwbcvbEkcwJjOa7qoN7YggvgEPgZ6pb7vn7pdv0LR7Xf93WGlfqwQX7tx3f3akBjpzdMklAbB4yTads/9JP22fvz50o/HSb4/jMPv/m19f5iV1tunflwfprdv80YOQbuTSN2u1Pe7Ybsly+thu6c1N5PwYRj7x3F42d5Pz/vutU9vd91p/9Ov5+Esf592NhLcZOpYY551717GSUVOS7QBPyu94ywSgH4WqUmkHKhla1nvfZw1pQ5g7SxTi0yBLyBs1tsMtAJZYPYqAroAWZRwBejA0IIIJVjnweoSK0XBMKjWA7aQunS4GSugbXtXgAnMuya6bcFLcZO6BIyLzxa4ooQqGjglucToAqhoopRogHFAKgFeljClSqE5lrFYUGIyPCuRz0wLK/lclQSwDoxp440ZlAF2EoRmgGlzy5lAZ7AlaJ+CtKD2GpRuwVYadOniM89DG7dCkIbhRgvBMdwUwOiURVd7cDzd8hRUl1N+M+yz6nGTysfDerPJig493Q2bYSTR9H3ecYVKnD/FpqfF3Wb31J1q5/l7TkZRJu+lWiUlBd5fq1al1y2vFeEKu6xI8Z8lCKqh4AOYsoRqCk+TCcLFBbOK0bEifaxiHKAqjy50jPi/Jpz7bwk39vsDNbpcQC04Pk3d9DP8fDh/PsW7oMGWtKPeEFQzwlSev6xCFaXdiEOIwJZQEb3RlJHK4c+K3sWcixUtgGQVLcjIuY+jVLrJYyzCS65RmJupU2lQIRctTnvyovyixglVuwV7m/ot8lgsbs3BL/FQFf1JZBRza+WVplud40UvCAhtYjgDgjUN6n+W9TonYjGIxAhpwsHoQKmrVmdacc03niW6zf76kLVGm3x0Yiy9FMDpdvoQNXhrFQH4CJNER1ltnXkpHmBxLxXNK7U2s7bwxQBLXzpZYJMe9SjHomRUOr+qRJdpopl9anaOOSATLQBya0kRZeWAK7Nubg0TdXXlgWhNxhSQbNrNg6IuUqDFISlpPbsNSRobfTuIMl0UIo0k75bSslYpFSgWw7OMdUqyj83BgKYAz5q8oPrgrzUO1uKpSQhfu52Vh5M1pxhqmmYsb/CZ7FLoQ3XNoSHIML9looQhs5eqLIdAFUW00z83h7GZeHYxpF7AyWdCrL/HdENDVwLIRBfT34BVFXNiHiXyJNlR1gZTBip2O6VkClfuRbm9iCFNDAmDqKcI6omsDFJeMghU0BCbN08EZPy1V4dUUgrcc6c7PL/N0TphP+BP4BwOEeUxOzH6vxpSb/h/MTfTX0bq9g8=);html=1;fillColor=#00ACC1;strokeColor=none;verticalLabelPosition=bottom;verticalAlign=top;labelPosition=center;align=center;" vertex="1" parent="1"&gt;&lt;mxGeometry x="50" y="214" width="168" height="104" as="geometry"/&gt;&lt;/mxCell&gt;&lt;mxCell id="n3" value="extractions" style="shape=stencil(zVhJdtswDD2NtwgJztu2OUCPoCZK4lfH8pOdwbcvbEkcwJjOa7qoN7YggvgEPgZ6pb7vn7pdv0LR7Xf93WGlfqwQX7tx3f3akBjpzdMklAbB4yTads/9JP22fvz50o/HSb4/jMPv/m19f5iV1tunflwfprdv80YOQbuTSN2u1Pe7Ybsly+thu6c1N5PwYRj7x3F42d5Pz/vutU9vd91p/9Ov5+Esf592NhLcZOpYY551717GSUVOS7QBPyu94ywSgH4WqUmkHKhla1nvfZw1pQ5g7SxTi0yBLyBs1tsMtAJZYPYqAroAWZRwBejA0IIIJVjnweoSK0XBMKjWA7aQunS4GSugbXtXgAnMuya6bcFLcZO6BIyLzxa4ooQqGjglucToAqhoopRogHFAKgFeljClSqE5lrFYUGIyPCuRz0wLK/lclQSwDoxp440ZlAF2EoRmgGlzy5lAZ7AlaJ+CtKD2GpRuwVYadOniM89DG7dCkIbhRgvBMdwUwOiURVd7cDzd8hRUl1N+M+yz6nGTysfDerPJig493Q2bYSTR9H3ecYVKnD/FpqfF3Wb31J1q5/l7TkZRJu+lWiUlBd5fq1al1y2vFeEKu6xI8Z8lCKqh4AOYsoRqCk+TCcLFBbOK0bEifaxiHKAqjy50jPi/Jpz7bwk39vsDNbpcQC04Pk3d9DP8fDh/PsW7oMGWtKPeEFQzwlSev6xCFaXdiEOIwJZQEb3RlJHK4c+K3sWcixUtgGQVLcjIuY+jVLrJYyzCS65RmJupU2lQIRctTnvyovyixglVuwV7m/ot8lgsbs3BL/FQFf1JZBRza+WVplud40UvCAhtYjgDgjUN6n+W9TonYjGIxAhpwsHoQKmrVmdacc03niW6zf76kLVGm3x0Yiy9FMDpdvoQNXhrFQH4CJNER1ltnXkpHmBxLxXNK7U2s7bwxQBLXzpZYJMe9SjHomRUOr+qRJdpopl9anaOOSATLQBya0kRZeWAK7Nubg0TdXXlgWhNxhSQbNrNg6IuUqDFISlpPbsNSRobfTuIMl0UIo0k75bSslYpFSgWw7OMdUqyj83BgKYAz5q8oPrgrzUO1uKpSQhfu52Vh5M1pxhqmmYsb/CZ7FLoQ3XNoSHIML9looQhs5eqLIdAFUW00z83h7GZeHYxpF7AyWdCrL/HdENDVwLIRBfT34BVFXNiHiXyJNlR1gZTBip2O6VkClfuRbm9iCFNDAmDqKcI6omsDFJeMghU0BCbN08EZPy1V4dUUgrcc6c7PL/N0TphP+BP4BwOEeUxOzH6vxpSb/h/MTfTX0bq9g8=);html=1;fillColor=#00ACC1;strokeColor=none;verticalLabelPosition=bottom;verticalAlign=top;labelPosition=center;align=center;" vertex="1" parent="1"&gt;&lt;mxGeometry x="50" y="348" width="168" height="104" as="geometry"/&gt;&lt;/mxCell&gt;&lt;mxCell id="n4" value="folders" style="shape=stencil(zVhJdtswDD2NtwgJztu2OUCPoCZK4lfH8pOdwbcvbEkcwJjOa7qoN7YggvgEPgZ6pb7vn7pdv0LR7Xf93WGlfqwQX7tx3f3akBjpzdMklAbB4yTads/9JP22fvz50o/HSb4/jMPv/m19f5iV1tunflwfprdv80YOQbuTSN2u1Pe7Ybsly+thu6c1N5PwYRj7x3F42d5Pz/vutU9vd91p/9Ov5+Esf592NhLcZOpYY551717GSUVOS7QBPyu94ywSgH4WqUmkHKhla1nvfZw1pQ5g7SxTi0yBLyBs1tsMtAJZYPYqAroAWZRwBejA0IIIJVjnweoSK0XBMKjWA7aQunS4GSugbXtXgAnMuya6bcFLcZO6BIyLzxa4ooQqGjglucToAqhoopRogHFAKgFeljClSqE5lrFYUGIyPCuRz0wLK/lclQSwDoxp440ZlAF2EoRmgGlzy5lAZ7AlaJ+CtKD2GpRuwVYadOniM89DG7dCkIbhRgvBMdwUwOiURVd7cDzd8hRUl1N+M+yz6nGTysfDerPJig493Q2bYSTR9H3ecYVKnD/FpqfF3Wb31J1q5/l7TkZRJu+lWiUlBd5fq1al1y2vFeEKu6xI8Z8lCKqh4AOYsoRqCk+TCcLFBbOK0bEifaxiHKAqjy50jPi/Jpz7bwk39vsDNbpcQC04Pk3d9DP8fDh/PsW7oMGWtKPeEFQzwlSev6xCFaXdiEOIwJZQEb3RlJHK4c+K3sWcixUtgGQVLcjIuY+jVLrJYyzCS65RmJupU2lQIRctTnvyovyixglVuwV7m/ot8lgsbs3BL/FQFf1JZBRza+WVplud40UvCAhtYjgDgjUN6n+W9TonYjGIxAhpwsHoQKmrVmdacc03niW6zf76kLVGm3x0Yiy9FMDpdvoQNXhrFQH4CJNER1ltnXkpHmBxLxXNK7U2s7bwxQBLXzpZYJMe9SjHomRUOr+qRJdpopl9anaOOSATLQBya0kRZeWAK7Nubg0TdXXlgWhNxhSQbNrNg6IuUqDFISlpPbsNSRobfTuIMl0UIo0k75bSslYpFSgWw7OMdUqyj83BgKYAz5q8oPrgrzUO1uKpSQhfu52Vh5M1pxhqmmYsb/CZ7FLoQ3XNoSHIML9looQhs5eqLIdAFUW00z83h7GZeHYxpF7AyWdCrL/HdENDVwLIRBfT34BVFXNiHiXyJNlR1gZTBip2O6VkClfuRbm9iCFNDAmDqKcI6omsDFJeMghU0BCbN08EZPy1V4dUUgrcc6c7PL/N0TphP+BP4BwOEeUxOzH6vxpSb/h/MTfTX0bq9g8=);html=1;fillColor=#00ACC1;strokeColor=none;verticalLabelPosition=bottom;verticalAlign=top;labelPosition=center;align=center;" vertex="1" parent="1"&gt;&lt;mxGeometry x="50" y="482" width="168" height="104" as="geometry"/&gt;&lt;/mxCell&gt;&lt;mxCell id="n5" value="groups" style="shape=stencil(zVhJdtswDD2NtwgJztu2OUCPoCZK4lfH8pOdwbcvbEkcwJjOa7qoN7YggvgEPgZ6pb7vn7pdv0LR7Xf93WGlfqwQX7tx3f3akBjpzdMklAbB4yTads/9JP22fvz50o/HSb4/jMPv/m19f5iV1tunflwfprdv80YOQbuTSN2u1Pe7Ybsly+thu6c1N5PwYRj7x3F42d5Pz/vutU9vd91p/9Ov5+Esf592NhLcZOpYY551717GSUVOS7QBPyu94ywSgH4WqUmkHKhla1nvfZw1pQ5g7SxTi0yBLyBs1tsMtAJZYPYqAroAWZRwBejA0IIIJVjnweoSK0XBMKjWA7aQunS4GSugbXtXgAnMuya6bcFLcZO6BIyLzxa4ooQqGjglucToAqhoopRogHFAKgFeljClSqE5lrFYUGIyPCuRz0wLK/lclQSwDoxp440ZlAF2EoRmgGlzy5lAZ7AlaJ+CtKD2GpRuwVYadOniM89DG7dCkIbhRgvBMdwUwOiURVd7cDzd8hRUl1N+M+yz6nGTysfDerPJig493Q2bYSTR9H3ecYVKnD/FpqfF3Wb31J1q5/l7TkZRJu+lWiUlBd5fq1al1y2vFeEKu6xI8Z8lCKqh4AOYsoRqCk+TCcLFBbOK0bEifaxiHKAqjy50jPi/Jpz7bwk39vsDNbpcQC04Pk3d9DP8fDh/PsW7oMGWtKPeEFQzwlSev6xCFaXdiEOIwJZQEb3RlJHK4c+K3sWcixUtgGQVLcjIuY+jVLrJYyzCS65RmJupU2lQIRctTnvyovyixglVuwV7m/ot8lgsbs3BL/FQFf1JZBRza+WVplud40UvCAhtYjgDgjUN6n+W9TonYjGIxAhpwsHoQKmrVmdacc03niW6zf76kLVGm3x0Yiy9FMDpdvoQNXhrFQH4CJNER1ltnXkpHmBxLxXNK7U2s7bwxQBLXzpZYJMe9SjHomRUOr+qRJdpopl9anaOOSATLQBya0kRZeWAK7Nubg0TdXXlgWhNxhSQbNrNg6IuUqDFISlpPbsNSRobfTuIMl0UIo0k75bSslYpFSgWw7OMdUqyj83BgKYAz5q8oPrgrzUO1uKpSQhfu52Vh5M1pxhqmmYsb/CZ7FLoQ3XNoSHIML9looQhs5eqLIdAFUW00z83h7GZeHYxpF7AyWdCrL/HdENDVwLIRBfT34BVFXNiHiXyJNlR1gZTBip2O6VkClfuRbm9iCFNDAmDqKcI6omsDFJeMghU0BCbN08EZPy1V4dUUgrcc6c7PL/N0TphP+BP4BwOEeUxOzH6vxpSb/h/MTfTX0bq9g8=);html=1;fillColor=#00ACC1;strokeColor=none;verticalLabelPosition=bottom;verticalAlign=top;labelPosition=center;align=center;" vertex="1" parent="1"&gt;&lt;mxGeometry x="50" y="616" width="168" height="104" as="geometry"/&gt;&lt;/mxCell&gt;&lt;mxCell id="n6" value="llm_usage" style="shape=stencil(zVhJdtswDD2NtwgJztu2OUCPoCZK4lfH8pOdwbcvbEkcwJjOa7qoN7YggvgEPgZ6pb7vn7pdv0LR7Xf93WGlfqwQX7tx3f3akBjpzdMklAbB4yTads/9JP22fvz50o/HSb4/jMPv/m19f5iV1tunflwfprdv80YOQbuTSN2u1Pe7Ybsly+thu6c1N5PwYRj7x3F42d5Pz/vutU9vd91p/9Ov5+Esf592NhLcZOpYY551717GSUVOS7QBPyu94ywSgH4WqUmkHKhla1nvfZw1pQ5g7SxTi0yBLyBs1tsMtAJZYPYqAroAWZRwBejA0IIIJVjnweoSK0XBMKjWA7aQunS4GSugbXtXgAnMuya6bcFLcZO6BIyLzxa4ooQqGjglucToAqhoopRogHFAKgFeljClSqE5lrFYUGIyPCuRz0wLK/lclQSwDoxp440ZlAF2EoRmgGlzy5lAZ7AlaJ+CtKD2GpRuwVYadOniM89DG7dCkIbhRgvBMdwUwOiURVd7cDzd8hRUl1N+M+yz6nGTysfDerPJig493Q2bYSTR9H3ecYVKnD/FpqfF3Wb31J1q5/l7TkZRJu+lWiUlBd5fq1al1y2vFeEKu6xI8Z8lCKqh4AOYsoRqCk+TCcLFBbOK0bEifaxiHKAqjy50jPi/Jpz7bwk39vsDNbpcQC04Pk3d9DP8fDh/PsW7oMGWtKPeEFQzwlSev6xCFaXdiEOIwJZQEb3RlJHK4c+K3sWcixUtgGQVLcjIuY+jVLrJYyzCS65RmJupU2lQIRctTnvyovyixglVuwV7m/ot8lgsbs3BL/FQFf1JZBRza+WVplud40UvCAhtYjgDgjUN6n+W9TonYjGIxAhpwsHoQKmrVmdacc03niW6zf76kLVGm3x0Yiy9FMDpdvoQNXhrFQH4CJNER1ltnXkpHmBxLxXNK7U2s7bwxQBLXzpZYJMe9SjHomRUOr+qRJdpopl9anaOOSATLQBya0kRZeWAK7Nubg0TdXXlgWhNxhSQbNrNg6IuUqDFISlpPbsNSRobfTuIMl0UIo0k75bSslYpFSgWw7OMdUqyj83BgKYAz5q8oPrgrzUO1uKpSQhfu52Vh5M1pxhqmmYsb/CZ7FLoQ3XNoSHIML9looQhs5eqLIdAFUW00z83h7GZeHYxpF7AyWdCrL/HdENDVwLIRBfT34BVFXNiHiXyJNlR1gZTBip2O6VkClfuRbm9iCFNDAmDqKcI6omsDFJeMghU0BCbN08EZPy1V4dUUgrcc6c7PL/N0TphP+BP4BwOEeUxOzH6vxpSb/h/MTfTX0bq9g8=);html=1;fillColor=#00ACC1;strokeColor=none;verticalLabelPosition=bottom;verticalAlign=top;labelPosition=center;align=center;" vertex="1" parent="1"&gt;&lt;mxGeometry x="50" y="750" width="168" height="104" as="geometry"/&gt;&lt;/mxCell&gt;&lt;mxCell id="n7" value="app" style="shape=stencil(zZbbkpswDIafJreKLR+5TvcF+gY0IQ1TFjKQ7G7evgJzktN4D9PONDcEgeTP0i+Zjdp1p/xcbFDk3bnYXzbq2wbxJW/L/EdFZqQnp2CUBsFlwVTnz0Ww7qrmeiDL92sdHnWXtvlVvJaHy+hX1qeiLS/h6esYyyFo15vU00bt9k1d0+JlU3f0zjYYj01b/Gyba30I913+UixPz3kfv//33Az2txDZSHBhqds99ui7v7bBRYZXtAE/Or3haBKAfjSpYFIO1BRa3se+jZ5SZ2DtaFOTTYFnCFVZr6AVSMbs1Qz0AFlwXAE6i2hBZBzWebCas1IVTIRqPWCK1C2bG1kBbTq7AkwWZZcSjpyX6iY1B8YpZxOu4KgiwSkpJUYzUJGklGgg0oBUArzkmFItpbnxWkyUuCw8OlHOTIqVcq64AKwDY9K8cwetgJ0EoSNgCm5jJdAeLIf2S5Emaq9B6RS20qB5igedp3tNKgRpIm60kLmImwo4J2Xy1R4cRu22bkH1uOWrpltNj+0yPo5lVa2GDt3tm6ppyRSuQ8QNKjH8WND+5bw6n/J+fA7XsRkFb95Hsyqjbdv3hhVPutF3LlKBswkXm4HnZXIWVGoRUl+kR+3SWvAGOJU1M+efHWS8D1oic0m5UTeaT+1DGorpebYEQmb+jardf6vqtugudJquDXTUz3fhyP5IExyH38fELSDLeLloOqVOQSkRLNedE+lqke64A+UIZSpHHNKRP961k0+JylvwKpahSZ2Z/SJchcrPLfl1rSc39pU5YUFjvCa+M4vibf3dsUIAd5NLyHeWiBvezP38ya7Zxl+g2/CtrJ5+Aw==);html=1;fillColor=#4285F4;strokeColor=none;verticalLabelPosition=bottom;verticalAlign=top;labelPosition=center;align=center;" vertex="1" parent="1"&gt;&lt;mxGeometry x="586" y="80" width="168" height="104" as="geometry"/&gt;&lt;/mxCell&gt;&lt;mxCell id="n8" value="app" style="shape=stencil(3ZbNlqIwEIWfxm2Zyn/WPf0gjOLIGRo8oN3t209JApjQhvbMrMaNUliVj5tbFTbipT8Wp3LDWdGfyt15I35sOH8vuqr4WVOY052jD6LiYLkPNcVb6aO7ur3sKXKourI/t13I6c9d+7v8qPbnkF01x7Krzv7uR6hoOEhzC4nXjXjZtU1DCFXb9PSfrQ8eqOSvrr00e3/dF+/lfPdU3Orffr21Q/zTV1YIxi91XcKH3N2l8yno/yIV2JD0yUOIAbchJHxIGBBjaVzWvoZMlA60DjExxgTYCKGumjtoARgxWzEBPUBmMS4D6RJaYC6GNRa0jFlpF1SCqi3wHKmZHy6wAtd5dRkol6irJtlGXto3lDEwHzUbcVmMyjKcSJIoGYGyLCVyBYkHUDCwGGOimLfmGu/FSMnnhUMSaaZyrKS5iA2gDSiV55066A7YIDCZAFNxnTqBnkHH0HbepJHaShAyhy0kyFjiwecuzy04oEq4uQZnEm7awEmUMVdaMGm73begeNzyddvfTY/tPD4OVV3fDR262rV121HIfw8VN1yw4RMVvf25qE/H4jZEh+/QjCxu3oezioOLBXQKnMtoriUYFbcfTlPpy4zlGoaGhchk0H1rowzqTYk5J6AFK+IUNc2JB56PDe8MGPxfzJaqQ4awq2fSNw06nbVzgM7u6cqfvt/x82H4fMunX+zvmoksGRkXjlD/1KjLjDXXLanocHL8b62d7N2qeGtdvsSkLufuKSnW1lhm0BqIT1FpDVI/J95ykax4tKaJCyDK9IVjgWlcLIXLYzo6fuOh6sRU48GDyVQ9ZDiNkCdbepu+6W79m7l4/QM=);html=1;fillColor=#34A853;strokeColor=none;verticalLabelPosition=bottom;verticalAlign=top;labelPosition=center;align=center;" vertex="1" parent="1"&gt;&lt;mxGeometry x="854" y="80" width="168" height="104" as="geometry"/&gt;&lt;/mxCell&gt;&lt;mxCell id="n9" value="runtime" style="shape=stencil(zVjLktowEPwaroNGbx1Tmz3kkI9wWG+g4mDKsA/+PgO29RgvYg9JVbiwjJHUmunuGXalHo7b5tCupGiOh3ZzWqmvKylfm2HX/OgoLOnJdgyikeDCGNo3v9sx+tD1L08U+fbl+/joeBr6X+3b7uk0rdvtt+2wO41P36a9nATtLiH1uFIPm36/p8N3/f5I31mPwed+aH8O/cv+afx8bF7b9PTQXPa//PW7v8bfx50NghuPOi9hT2s3L8O4BMevaAN+WvQup5AA6aeQGkPKgZq3xuXe52kl6gDWTjE1xxT4AkK322egFWCB2asI6AZkUcIVoANDCyKUYJ0Hq0usVAXDoFoPsobUpctNWEHaenYFmMCySwmXJV6qG+oSsJxzNsMVJVRRwYmUEqMLoKKKEqUBxgFUAjyWMFGl0pzLWswoZTp4WkQ5MzWslHNVEsA6MKaONyooA+wQhGaAaXPLmUB3sCVon4o0o/YalK7BVhp0meIrz+taQyUBDcMtLQTHcFMBY1LmtdqDk0xuuQTVbcl3/TFzj3Wyj+dd12WmQ582fdcPFBrfrzuupBLXV7Hp5ctNd9g2F/u8vk9iFKV4b3kVogR7z6zKpBMx4m2nJcJBqJmLFZFLs2RdLPaHK5yYPWBaYASEKhUwRANKS7Sqkl4V3w8a5D9im/tv2Ta0xxN1uTxALTh+GlvpZ8j5fH19inTeQCjp4CILb2QxkNVgmcRggRlNikSbSeyWkb2C95u73Tk7aj4cQanydG8X7cNYUKY8n5qMN+X5WejG+WSNlhmWMyBZv81CEUB2moyYuM1SAhCrAPLTZrvGBYC8rhh7uXGLjs8KsKx+SV7GnizPs/bx3gUCXYDxB4UCzQYsFCbqOYqQ3G0hQoFxOJtvQfYRqnaT7z1dJYDzdffIFkXuabBL7gnGPRrgZveLmXfg+VyQQrdKT81blgCsBTY6pUhUXnaWjIgEb/CBDxmscVjWBkiJWNcKdQ7PpJKgVLSKQi60gsLHASR67Qdkq9J1YXaI7l7TcG4heBvioByzriBwsmJGsvkWKNLAGImuQdQlYxwwxVCXMWwYzULnZJbICm/ieHBOXmVdpfD5vrGb15iSK2D6nWDA+L88MdCSec/UubSsSzhbFL0H7XJMFiH2uEzEntknqV8sioncepY+QqM0k3GgAt938AssoTmjTByVki6WrP7kDLLmv7PX438E1OMf);html=1;fillColor=#EA4335;strokeColor=none;verticalLabelPosition=bottom;verticalAlign=top;labelPosition=center;align=center;" vertex="1" parent="1"&gt;&lt;mxGeometry x="1390" y="80" width="168" height="104" as="geometry"/&gt;&lt;/mxCell&gt;&lt;mxCell id="n10" value="assets" style="shape=stencil(zVjbcts4DP0avyIkwJues/2CfoE2cRpPXSsjO2399wtZEi+gJSWd6cz6xRYkgIcH4AHkHT2eX9u3/Q5Ve37bP1129M8O8WfbH9p/j2xGvvM6GrVF8M1oOrU/9qP18di9P7Pl66Xr22+Tx/nSd9/3vw7Pl8n3cHrd94fLePfXFM8jGD+Y6MuOHp+604kBHLrTmZ95GI0vXb//1nfvp+fx+tz+3Ke7b+0Qf/j1o7vZf4+RrQY/LnWtoU++T+/96KLHR4yFMDn9xsmkAMNkotFEHmgOrevY18lTmwacm2w02whCAeF4OGWgCXSBOVAEtABZlXAVmEagBdWUYH0AZ0qsnAUroLoAuIbUp81NWAHdOrsKbCPYZcKxxMt506YEjDNnM1xVQlUrODVTYk0BVK2i1GhB1IAmBUGXMDWl1FzLXMwoMS08OTFndg0rc05lATgP1q7jjScoA+w1KCMAc3AnK4H34ErQISVpRh0MkFmDTQZMSfGtztfPmiYEbQVudNB4gZsTGEmZfU0Aj+K45UeQlo/8sTtn6vGQ5OPlcDxmosNXT92x69k0ft8i7pDU7VMEHR5uj2+v7SCht+/pMKry8C5pldYWUG+pVcm6LdWtMWD9yuPOAZYenGm/5mE5F03hwZXmaa0QtIEmFC6WVWFtF5ofsKWLVhoa+jv15v+39dbvz9w897mBG3G8GpvpR8rz5fb5WNkpC7pM8aBAZp1H5cA7waPyqXFSbZt5zKLPNLLAKS06jwVDGxh81agHXFaKNG8QrcDAPVZonsPU0KkyLWLgQCgxICgnMSRbxJAtiBGWr3nAsIEhWw8TLgo1D1po/0C8mFjy9NBiPZQFLYaukILGFoPrDczyOCX6AEuPkWNBMmXdKyY3zTFGZJJboduQuRh4sjSyTVeQM3wYd4Fi8mIy5AEY5FAknh2ljGSmBZ3lFFOJ2W/NtoM4OxK1wn1Hzou57aprjJgyLZhm3sI67CzylBwVG8Yi7Awipq1U89jAiZBtrobYVbGuGVqs0LUSH86SKrtPo7YFy8UqTAc1ROlLBzXZ5l1k0eOQFkDOaB62ZDtbLZPM5o5UyBeGYNPkiHEmNKYaE43ZlEy6o5h0RzFJQMjWw4jKuJoF2lZMqhUT3R0axGsIsx5EIvLc0GIxbCjmLDZzNfHKYUsxkf5EMbPQcQcmScm8A6bDfEoxg4Y/EUztKsF0knMexkTp+SbqWDzCybSgPBjfM69LLvcEsxp0PiiYOcb0YqWF8jBtjf+cYDYYG/knBdP7WjArqTHp4GFdMrRYoB8cch/kXzkP4x9P9OU/);html=1;fillColor=#F9AB00;strokeColor=none;verticalLabelPosition=bottom;verticalAlign=top;labelPosition=center;align=center;" vertex="1" parent="1"&gt;&lt;mxGeometry x="1658" y="80" width="168" height="104" as="geometry"/&gt;&lt;/mxCell&gt;&lt;mxCell id="n11" value="image" style="rounded=1;whiteSpace=wrap;html=1;fillColor=#ffffff;strokeColor=#9AA0A6;" vertex="1" parent="1"&gt;&lt;mxGeometry x="1122" y="80" width="168" height="104" as="geometry"/&gt;&lt;/mxCell&gt;&lt;mxCell id="e0" value="" style="endArrow=block;html=1;strokeColor=#94a3b8;" edge="1" parent="1" source="n2" target="n1"&gt;&lt;mxGeometry relative="1" as="geometry"/&gt;&lt;/mxCell&gt;&lt;mxCell id="e1" value="" style="endArrow=block;html=1;strokeColor=#94a3b8;" edge="1" parent="1" source="n3" target="n1"&gt;&lt;mxGeometry relative="1" as="geometry"/&gt;&lt;/mxCell&gt;&lt;mxCell id="e2" value="" style="endArrow=block;html=1;strokeColor=#94a3b8;" edge="1" parent="1" source="n4" target="n1"&gt;&lt;mxGeometry relative="1" as="geometry"/&gt;&lt;/mxCell&gt;&lt;mxCell id="e3" value="" style="endArrow=block;html=1;strokeColor=#94a3b8;" edge="1" parent="1" source="n5" target="n1"&gt;&lt;mxGeometry relative="1" as="geometry"/&gt;&lt;/mxCell&gt;&lt;mxCell id="e4" value="" style="endArrow=block;html=1;strokeColor=#94a3b8;" edge="1" parent="1" source="n6" target="n1"&gt;&lt;mxGeometry relative="1" as="geometry"/&gt;&lt;/mxCell&gt;&lt;mxCell id="e5" value="" style="endArrow=block;html=1;strokeColor=#94a3b8;" edge="1" parent="1" source="n7" target="n10"&gt;&lt;mxGeometry relative="1" as="geometry"/&gt;&lt;/mxCell&gt;&lt;mxCell id="e6" value="" style="endArrow=block;html=1;strokeColor=#94a3b8;" edge="1" parent="1" source="n7" target="n8"&gt;&lt;mxGeometry relative="1" as="geometry"/&gt;&lt;/mxCell&gt;&lt;mxCell id="e7" value="" style="endArrow=block;html=1;strokeColor=#94a3b8;" edge="1" parent="1" source="n7" target="n1"&gt;&lt;mxGeometry relative="1" as="geometry"/&gt;&lt;/mxCell&gt;&lt;mxCell id="e8" value="" style="endArrow=block;html=1;strokeColor=#94a3b8;" edge="1" parent="1" source="n7" target="n2"&gt;&lt;mxGeometry relative="1" as="geometry"/&gt;&lt;/mxCell&gt;&lt;mxCell id="e9" value="" style="endArrow=block;html=1;strokeColor=#94a3b8;" edge="1" parent="1" source="n7" target="n9"&gt;&lt;mxGeometry relative="1" as="geometry"/&gt;&lt;/mxCell&gt;&lt;mxCell id="e10" value="artifactregistry.reader" style="endArrow=block;html=1;dashed=1;strokeColor=#9aa5b1;" edge="1" parent="1" source="n9" target="n0"&gt;&lt;mxGeometry relative="1" as="geometry"/&gt;&lt;/mxCell&gt;&lt;mxCell id="e11" value="bigquery.dataEditor" style="endArrow=block;html=1;dashed=1;strokeColor=#9aa5b1;" edge="1" parent="1" source="n9" target="n1"&gt;&lt;mxGeometry relative="1" as="geometry"/&gt;&lt;/mxCell&gt;&lt;mxCell id="e12" value="storage.objectAdmin" style="endArrow=block;html=1;dashed=1;strokeColor=#9aa5b1;" edge="1" parent="1" source="n9" target="n10"&gt;&lt;mxGeometry relative="1" as="geometry"/&gt;&lt;/mxCell&gt;&lt;/root&gt;&lt;/mxGraphModel&gt;&lt;/diagram&gt;&lt;/mxfile&gt;'><defs><marker id="arrow" viewBox="0 0 10 10" refX="9" refY="5" markerWidth="7" markerHeight="7" orient="auto-start-reverse"><path d="M0 0 L10 5 L0 10 z" fill="#94a3b8"/></marker></defs><rect width="1876.0" height="904.0" fill="#ffffff"/><text x="938.0" y="20" text-anchor="middle" font-family="sans-serif" font-size="15" font-weight="700" fill="#1e293b">webapp | prod | state</text><rect x="28.0" y="28.0" width="212.0" height="848.0" rx="12" fill="#f8fafc" stroke="#00ACC1" stroke-width="1.5" opacity="0.95"/><text x="42.0" y="48.0" font-family="sans-serif" font-size="13" font-weight="700" fill="#00ACC1">Analytics</text><rect x="296.0" y="28.0" width="212.0" height="178.0" rx="12" fill="#f8fafc" stroke="#A142F4" stroke-width="1.5" opacity="0.95"/><text x="310.0" y="48.0" font-family="sans-serif" font-size="13" font-weight="700" fill="#A142F4">Build &amp; Registry</text><rect x="564.0" y="28.0" width="212.0" height="178.0" rx="12" fill="#f8fafc" stroke="#4285F4" stroke-width="1.5" opacity="0.95"/><text x="578.0" y="48.0" font-family="sans-serif" font-size="13" font-weight="700" fill="#4285F4">Compute</text><rect x="832.0" y="28.0" width="212.0" height="178.0" rx="12" fill="#f8fafc" stroke="#34A853" stroke-width="1.5" opacity="0.95"/><text x="846.0" y="48.0" font-family="sans-serif" font-size="13" font-weight="700" fill="#34A853">Data</text><rect x="1100.0" y="28.0" width="212.0" height="178.0" rx="12" fill="#f8fafc" stroke="#9AA0A6" stroke-width="1.5" opacity="0.95"/><text x="1114.0" y="48.0" font-family="sans-serif" font-size="13" font-weight="700" fill="#9AA0A6">Other</text><rect x="1368.0" y="28.0" width="212.0" height="178.0" rx="12" fill="#f8fafc" stroke="#EA4335" stroke-width="1.5" opacity="0.95"/><text x="1382.0" y="48.0" font-family="sans-serif" font-size="13" font-weight="700" fill="#EA4335">Security &amp; IAM</text><rect x="1636.0" y="28.0" width="212.0" height="178.0" rx="12" fill="#f8fafc" stroke="#F9AB00" stroke-width="1.5" opacity="0.95"/><text x="1650.0" y="48.0" font-family="sans-serif" font-size="13" font-weight="700" fill="#F9AB00">Storage</text><line x1="134.0" y1="266.0" x2="134.0" y2="132.0" stroke="#94a3b8" stroke-width="1.5" marker-end="url(#arrow)"/><line x1="134.0" y1="400.0" x2="134.0" y2="132.0" stroke="#94a3b8" stroke-width="1.5" marker-end="url(#arrow)"/><line x1="134.0" y1="534.0" x2="134.0" y2="132.0" stroke="#94a3b8" stroke-width="1.5" marker-end="url(#arrow)"/><line x1="134.0" y1="668.0" x2="134.0" y2="132.0" stroke="#94a3b8" stroke-width="1.5" marker-end="url(#arrow)"/><line x1="134.0" y1="802.0" x2="134.0" y2="132.0" stroke="#94a3b8" stroke-width="1.5" marker-end="url(#arrow)"/><line x1="670.0" y1="132.0" x2="1742.0" y2="132.0" stroke="#94a3b8" stroke-width="1.5" marker-end="url(#arrow)"/><line x1="670.0" y1="132.0" x2="938.0" y2="132.0" stroke="#94a3b8" stroke-width="1.5" marker-end="url(#arrow)"/><line x1="670.0" y1="132.0" x2="134.0" y2="132.0" stroke="#94a3b8" stroke-width="1.5" marker-end="url(#arrow)"/><line x1="670.0" y1="132.0" x2="134.0" y2="266.0" stroke="#94a3b8" stroke-width="1.5" marker-end="url(#arrow)"/><line x1="670.0" y1="132.0" x2="1474.0" y2="132.0" stroke="#94a3b8" stroke-width="1.5" marker-end="url(#arrow)"/><line x1="1474.0" y1="132.0" x2="402.0" y2="132.0" stroke="#9aa5b1" stroke-width="1.5" stroke-dasharray="5 4" marker-end="url(#arrow)"/><text x="938.0" y="129.0" text-anchor="middle" font-family="sans-serif" font-size="9" fill="#64748b">artifactregistry.reader</text><line x1="1474.0" y1="132.0" x2="134.0" y2="132.0" stroke="#9aa5b1" stroke-width="1.5" stroke-dasharray="5 4" marker-end="url(#arrow)"/><text x="804.0" y="129.0" text-anchor="middle" font-family="sans-serif" font-size="9" fill="#64748b">bigquery.dataEditor</text><line x1="1474.0" y1="132.0" x2="1742.0" y2="132.0" stroke="#9aa5b1" stroke-width="1.5" stroke-dasharray="5 4" marker-end="url(#arrow)"/><text x="1608.0" y="129.0" text-anchor="middle" font-family="sans-serif" font-size="9" fill="#64748b">storage.objectAdmin</text><rect x="318.0" y="80.0" width="168.0" height="104.0" rx="10" fill="#ffffff" stroke="#A142F4" stroke-width="2"/><g transform="translate(374.00 95.19) scale(0.3247)"><path d="M51.7 152.79 C45.87 152.79 40.28 149.66 37.37 143.8 L3.1 83.87 C0 78.64 0.49 72.56 3.09 68.2 L37.66 8.26 C40.59 2.8 45.82 0 51.14 0 L120.54 0 C125.7 0 130.81 2.54 133.87 7.65 L168.31 67.55 C172.47 73.86 171.04 80.59 168.69 84.34 L134.44 143.89 C132.15 148.72 126.97 152.79 120.31 152.79 Z" fill="#A142F4" stroke="none"/><path d="M94.84 152.79 L43.15 101.24 L49.73 54.75 L62.23 40.34 L75.8 54.7 L96.66 54.12 L121.78 79.56 L121.55 61.87 L109.75 50.56 L128.88 51.44 L166.14 88.77 L134.44 143.89 C132.17 148.72 126.97 152.79 120.31 152.79 Z" fill="#000000" stroke="none" fill-opacity="0.07"/><rect x="0" y="0" width="0" height="0" fill="none" stroke="#A142F4" stroke-width="1"/><path d="M109.9 112.32 L128.88 101.44 L128.88 51.44 L109.69 39.98 L109.75 50.56 L120.53 56.77 L120.6 96.01 L109.81 101.98 Z M85.96 73.34 L75.17 66.76 L75.17 53.81 L85.87 47.44 L97.07 53.76 L97.01 66.85 Z M100.85 98.22 L89.85 91.99 L89.8 79.13 L100.5 72.81 L111.64 79.09 L111.59 91.95 Z M71.2 98.71 L60.5 92.21 L60.5 79.31 L71.29 73.17 L82.29 79.57 L82.42 92.17 Z M62.34 112.65 L43.15 101.24 L43.08 51.21 L62.23 40.34 L62.3 50.52 L51.4 56.8 L51.62 96.1 L62.36 102.24 Z" fill="#ffffff" stroke="none"/></g><text x="402.0" y="166.0" text-anchor="middle" font-family="sans-serif" font-size="13" font-weight="600" fill="#1e293b">app</text><text x="402.0" y="182.0" text-anchor="middle" font-family="sans-serif" font-size="10" fill="#64748b">artifact_registry_repository</text><rect x="50.0" y="80.0" width="168.0" height="104.0" rx="10" fill="#ffffff" stroke="#00ACC1" stroke-width="2"/><g transform="translate(106.00 95.19) scale(0.3247)"><path d="M51.7 152.82 C45.87 152.82 40.28 149.66 37.37 143.8 L3.1 83.87 C0 78.64 0.49 72.56 3.09 68.2 L37.66 8.26 C40.59 2.8 45.82 0 51.14 0 L120.54 0 C125.7 0 130.81 2.54 133.87 7.65 L168.31 67.55 C172.47 73.86 171.04 80.59 168.69 84.34 L134.44 143.89 C132.15 148.72 126.97 152.82 120.31 152.82 Z" fill="#00ACC1" stroke="none"/><path d="M118.38 152.82 L63.1 97.65 L60.69 62.3 L89.57 46.94 L107.94 54.49 L157.23 104.31 L134.44 143.89 C132.17 148.72 126.97 152.82 120.31 152.82 Z" fill="#000000" stroke="none" fill-opacity="0.07"/><rect x="0" y="0" width="0" height="0" fill="none" stroke="#00ACC1" stroke-width="1"/><path d="M94.68 78.93 L101.18 78.93 L101.18 84.2 C99.68 87.07 97.25 89.19 94.68 91.23 Z M82.55 92.83 L82.55 67.01 L88.91 67.01 L88.91 92.86 C86.82 93.72 84.2 93.53 82.55 92.83 Z M77.38 90.92 C75.05 89.56 72.64 88.14 70.89 84.53 L70.89 74.93 L77.38 74.93 Z M85.02 99.74 C98.95 99.74 109.1 88.38 109.1 76.99 C109.1 60.76 95.5 53.02 85.94 53.02 C75.41 53.02 62.71 62.21 62.71 76.26 C62.71 90.18 75.04 99.74 85.02 99.74 Z M119.77 112.48 C118.64 113.36 117 113.3 116 112.29 L104.84 100.98 C99.7 104.73 94.08 107.62 85.09 107.62 C69.59 107.62 54.57 93.62 54.57 77.04 C54.57 59.92 67.89 45.27 86.02 45.27 C105.63 45.27 117.21 62.36 117.21 75.95 C117.21 84.24 114.68 90.6 110.68 95.22 L122.2 106.89 C122.93 107.69 123.04 109.22 122.06 110.28 Z" fill="#ffffff" stroke="none"/></g><text x="134.0" y="166.0" text-anchor="middle" font-family="sans-serif" font-size="13" font-weight="600" fill="#1e293b">app</text><text x="134.0" y="182.0" text-anchor="middle" font-family="sans-serif" font-size="10" fill="#64748b">bigquery_dataset</text><rect x="50.0" y="214.0" width="168.0" height="104.0" rx="10" fill="#ffffff" stroke="#00ACC1" stroke-width="2"/><g transform="translate(106.00 229.19) scale(0.3247)"><path d="M51.7 152.82 C45.87 152.82 40.28 149.66 37.37 143.8 L3.1 83.87 C0 78.64 0.49 72.56 3.09 68.2 L37.66 8.26 C40.59 2.8 45.82 0 51.14 0 L120.54 0 C125.7 0 130.81 2.54 133.87 7.65 L168.31 67.55 C172.47 73.86 171.04 80.59 168.69 84.34 L134.44 143.89 C132.15 148.72 126.97 152.82 120.31 152.82 Z" fill="#00ACC1" stroke="none"/><path d="M118.38 152.82 L63.1 97.65 L60.69 62.3 L89.57 46.94 L107.94 54.49 L157.23 104.31 L134.44 143.89 C132.17 148.72 126.97 152.82 120.31 152.82 Z" fill="#000000" stroke="none" fill-opacity="0.07"/><rect x="0" y="0" width="0" height="0" fill="none" stroke="#00ACC1" stroke-width="1"/><path d="M94.68 78.93 L101.18 78.93 L101.18 84.2 C99.68 87.07 97.25 89.19 94.68 91.23 Z M82.55 92.83 L82.55 67.01 L88.91 67.01 L88.91 92.86 C86.82 93.72 84.2 93.53 82.55 92.83 Z M77.38 90.92 C75.05 89.56 72.64 88.14 70.89 84.53 L70.89 74.93 L77.38 74.93 Z M85.02 99.74 C98.95 99.74 109.1 88.38 109.1 76.99 C109.1 60.76 95.5 53.02 85.94 53.02 C75.41 53.02 62.71 62.21 62.71 76.26 C62.71 90.18 75.04 99.74 85.02 99.74 Z M119.77 112.48 C118.64 113.36 117 113.3 116 112.29 L104.84 100.98 C99.7 104.73 94.08 107.62 85.09 107.62 C69.59 107.62 54.57 93.62 54.57 77.04 C54.57 59.92 67.89 45.27 86.02 45.27 C105.63 45.27 117.21 62.36 117.21 75.95 C117.21 84.24 114.68 90.6 110.68 95.22 L122.2 106.89 C122.93 107.69 123.04 109.22 122.06 110.28 Z" fill="#ffffff" stroke="none"/></g><text x="134.0" y="300.0" text-anchor="middle" font-family="sans-serif" font-size="13" font-weight="600" fill="#1e293b">asset_metadata</text><text x="134.0" y="316.0" text-anchor="middle" font-family="sans-serif" font-size="10" fill="#64748b">bigquery_table</text><rect x="50.0" y="348.0" width="168.0" height="104.0" rx="10" fill="#ffffff" stroke="#00ACC1" stroke-width="2"/><g transform="translate(106.00 363.19) scale(0.3247)"><path d="M51.7 152.82 C45.87 152.82 40.28 149.66 37.37 143.8 L3.1 83.87 C0 78.64 0.49 72.56 3.09 68.2 L37.66 8.26 C40.59 2.8 45.82 0 51.14 0 L120.54 0 C125.7 0 130.81 2.54 133.87 7.65 L168.31 67.55 C172.47 73.86 171.04 80.59 168.69 84.34 L134.44 143.89 C132.15 148.72 126.97 152.82 120.31 152.82 Z" fill="#00ACC1" stroke="none"/><path d="M118.38 152.82 L63.1 97.65 L60.69 62.3 L89.57 46.94 L107.94 54.49 L157.23 104.31 L134.44 143.89 C132.17 148.72 126.97 152.82 120.31 152.82 Z" fill="#000000" stroke="none" fill-opacity="0.07"/><rect x="0" y="0" width="0" height="0" fill="none" stroke="#00ACC1" stroke-width="1"/><path d="M94.68 78.93 L101.18 78.93 L101.18 84.2 C99.68 87.07 97.25 89.19 94.68 91.23 Z M82.55 92.83 L82.55 67.01 L88.91 67.01 L88.91 92.86 C86.82 93.72 84.2 93.53 82.55 92.83 Z M77.38 90.92 C75.05 89.56 72.64 88.14 70.89 84.53 L70.89 74.93 L77.38 74.93 Z M85.02 99.74 C98.95 99.74 109.1 88.38 109.1 76.99 C109.1 60.76 95.5 53.02 85.94 53.02 C75.41 53.02 62.71 62.21 62.71 76.26 C62.71 90.18 75.04 99.74 85.02 99.74 Z M119.77 112.48 C118.64 113.36 117 113.3 116 112.29 L104.84 100.98 C99.7 104.73 94.08 107.62 85.09 107.62 C69.59 107.62 54.57 93.62 54.57 77.04 C54.57 59.92 67.89 45.27 86.02 45.27 C105.63 45.27 117.21 62.36 117.21 75.95 C117.21 84.24 114.68 90.6 110.68 95.22 L122.2 106.89 C122.93 107.69 123.04 109.22 122.06 110.28 Z" fill="#ffffff" stroke="none"/></g><text x="134.0" y="434.0" text-anchor="middle" font-family="sans-serif" font-size="13" font-weight="600" fill="#1e293b">extractions</text><text x="134.0" y="450.0" text-anchor="middle" font-family="sans-serif" font-size="10" fill="#64748b">bigquery_table</text><rect x="50.0" y="482.0" width="168.0" height="104.0" rx="10" fill="#ffffff" stroke="#00ACC1" stroke-width="2"/><g transform="translate(106.00 497.19) scale(0.3247)"><path d="M51.7 152.82 C45.87 152.82 40.28 149.66 37.37 143.8 L3.1 83.87 C0 78.64 0.49 72.56 3.09 68.2 L37.66 8.26 C40.59 2.8 45.82 0 51.14 0 L120.54 0 C125.7 0 130.81 2.54 133.87 7.65 L168.31 67.55 C172.47 73.86 171.04 80.59 168.69 84.34 L134.44 143.89 C132.15 148.72 126.97 152.82 120.31 152.82 Z" fill="#00ACC1" stroke="none"/><path d="M118.38 152.82 L63.1 97.65 L60.69 62.3 L89.57 46.94 L107.94 54.49 L157.23 104.31 L134.44 143.89 C132.17 148.72 126.97 152.82 120.31 152.82 Z" fill="#000000" stroke="none" fill-opacity="0.07"/><rect x="0" y="0" width="0" height="0" fill="none" stroke="#00ACC1" stroke-width="1"/><path d="M94.68 78.93 L101.18 78.93 L101.18 84.2 C99.68 87.07 97.25 89.19 94.68 91.23 Z M82.55 92.83 L82.55 67.01 L88.91 67.01 L88.91 92.86 C86.82 93.72 84.2 93.53 82.55 92.83 Z M77.38 90.92 C75.05 89.56 72.64 88.14 70.89 84.53 L70.89 74.93 L77.38 74.93 Z M85.02 99.74 C98.95 99.74 109.1 88.38 109.1 76.99 C109.1 60.76 95.5 53.02 85.94 53.02 C75.41 53.02 62.71 62.21 62.71 76.26 C62.71 90.18 75.04 99.74 85.02 99.74 Z M119.77 112.48 C118.64 113.36 117 113.3 116 112.29 L104.84 100.98 C99.7 104.73 94.08 107.62 85.09 107.62 C69.59 107.62 54.57 93.62 54.57 77.04 C54.57 59.92 67.89 45.27 86.02 45.27 C105.63 45.27 117.21 62.36 117.21 75.95 C117.21 84.24 114.68 90.6 110.68 95.22 L122.2 106.89 C122.93 107.69 123.04 109.22 122.06 110.28 Z" fill="#ffffff" stroke="none"/></g><text x="134.0" y="568.0" text-anchor="middle" font-family="sans-serif" font-size="13" font-weight="600" fill="#1e293b">folders</text><text x="134.0" y="584.0" text-anchor="middle" font-family="sans-serif" font-size="10" fill="#64748b">bigquery_table</text><rect x="50.0" y="616.0" width="168.0" height="104.0" rx="10" fill="#ffffff" stroke="#00ACC1" stroke-width="2"/><g transform="translate(106.00 631.19) scale(0.3247)"><path d="M51.7 152.82 C45.87 152.82 40.28 149.66 37.37 143.8 L3.1 83.87 C0 78.64 0.49 72.56 3.09 68.2 L37.66 8.26 C40.59 2.8 45.82 0 51.14 0 L120.54 0 C125.7 0 130.81 2.54 133.87 7.65 L168.31 67.55 C172.47 73.86 171.04 80.59 168.69 84.34 L134.44 143.89 C132.15 148.72 126.97 152.82 120.31 152.82 Z" fill="#00ACC1" stroke="none"/><path d="M118.38 152.82 L63.1 97.65 L60.69 62.3 L89.57 46.94 L107.94 54.49 L157.23 104.31 L134.44 143.89 C132.17 148.72 126.97 152.82 120.31 152.82 Z" fill="#000000" stroke="none" fill-opacity="0.07"/><rect x="0" y="0" width="0" height="0" fill="none" stroke="#00ACC1" stroke-width="1"/><path d="M94.68 78.93 L101.18 78.93 L101.18 84.2 C99.68 87.07 97.25 89.19 94.68 91.23 Z M82.55 92.83 L82.55 67.01 L88.91 67.01 L88.91 92.86 C86.82 93.72 84.2 93.53 82.55 92.83 Z M77.38 90.92 C75.05 89.56 72.64 88.14 70.89 84.53 L70.89 74.93 L77.38 74.93 Z M85.02 99.74 C98.95 99.74 109.1 88.38 109.1 76.99 C109.1 60.76 95.5 53.02 85.94 53.02 C75.41 53.02 62.71 62.21 62.71 76.26 C62.71 90.18 75.04 99.74 85.02 99.74 Z M119.77 112.48 C118.64 113.36 117 113.3 116 112.29 L104.84 100.98 C99.7 104.73 94.08 107.62 85.09 107.62 C69.59 107.62 54.57 93.62 54.57 77.04 C54.57 59.92 67.89 45.27 86.02 45.27 C105.63 45.27 117.21 62.36 117.21 75.95 C117.21 84.24 114.68 90.6 110.68 95.22 L122.2 106.89 C122.93 107.69 123.04 109.22 122.06 110.28 Z" fill="#ffffff" stroke="none"/></g><text x="134.0" y="702.0" text-anchor="middle" font-family="sans-serif" font-size="13" font-weight="600" fill="#1e293b">groups</text><text x="134.0" y="718.0" text-anchor="middle" font-family="sans-serif" font-size="10" fill="#64748b">bigquery_table</text><rect x="50.0" y="750.0" width="168.0" height="104.0" rx="10" fill="#ffffff" stroke="#00ACC1" stroke-width="2"/><g transform="translate(106.00 765.19) scale(0.3247)"><path d="M51.7 152.82 C45.87 152.82 40.28 149.66 37.37 143.8 L3.1 83.87 C0 78.64 0.49 72.56 3.09 68.2 L37.66 8.26 C40.59 2.8 45.82 0 51.14 0 L120.54 0 C125.7 0 130.81 2.54 133.87 7.65 L168.31 67.55 C172.47 73.86 171.04 80.59 168.69 84.34 L134.44 143.89 C132.15 148.72 126.97 152.82 120.31 152.82 Z" fill="#00ACC1" stroke="none"/><path d="M118.38 152.82 L63.1 97.65 L60.69 62.3 L89.57 46.94 L107.94 54.49 L157.23 104.31 L134.44 143.89 C132.17 148.72 126.97 152.82 120.31 152.82 Z" fill="#000000" stroke="none" fill-opacity="0.07"/><rect x="0" y="0" width="0" height="0" fill="none" stroke="#00ACC1" stroke-width="1"/><path d="M94.68 78.93 L101.18 78.93 L101.18 84.2 C99.68 87.07 97.25 89.19 94.68 91.23 Z M82.55 92.83 L82.55 67.01 L88.91 67.01 L88.91 92.86 C86.82 93.72 84.2 93.53 82.55 92.83 Z M77.38 90.92 C75.05 89.56 72.64 88.14 70.89 84.53 L70.89 74.93 L77.38 74.93 Z M85.02 99.74 C98.95 99.74 109.1 88.38 109.1 76.99 C109.1 60.76 95.5 53.02 85.94 53.02 C75.41 53.02 62.71 62.21 62.71 76.26 C62.71 90.18 75.04 99.74 85.02 99.74 Z M119.77 112.48 C118.64 113.36 117 113.3 116 112.29 L104.84 100.98 C99.7 104.73 94.08 107.62 85.09 107.62 C69.59 107.62 54.57 93.62 54.57 77.04 C54.57 59.92 67.89 45.27 86.02 45.27 C105.63 45.27 117.21 62.36 117.21 75.95 C117.21 84.24 114.68 90.6 110.68 95.22 L122.2 106.89 C122.93 107.69 123.04 109.22 122.06 110.28 Z" fill="#ffffff" stroke="none"/></g><text x="134.0" y="836.0" text-anchor="middle" font-family="sans-serif" font-size="13" font-weight="600" fill="#1e293b">llm_usage</text><text x="134.0" y="852.0" text-anchor="middle" font-family="sans-serif" font-size="10" fill="#64748b">bigquery_table</text><rect x="586.0" y="80.0" width="168.0" height="104.0" rx="10" fill="#ffffff" stroke="#4285F4" stroke-width="2"/><g transform="translate(642.00 95.19) scale(0.3247)"><path d="M51.7 152.79 C45.87 152.79 40.28 149.66 37.37 143.8 L3.1 83.87 C0 78.64 0.49 72.56 3.09 68.2 L37.66 8.26 C40.59 2.8 45.82 0 51.14 0 L120.54 0 C125.7 0 130.81 2.54 133.87 7.65 L168.31 67.55 C172.47 73.86 171.04 80.59 168.69 84.34 L134.44 143.89 C132.15 148.72 126.97 152.79 120.31 152.79 Z" fill="#4285F4" stroke="none"/><path d="M96.96 152.79 L54.96 113.76 L69.84 76.39 L67.31 47.34 L85.6 65.96 L81.96 47.97 L130.85 76.39 L157.98 102.95 L134.44 143.89 C132.17 148.72 126.97 152.79 120.31 152.79 Z" fill="#000000" stroke="none" fill-opacity="0.07"/><rect x="0" y="0" width="0" height="0" fill="none" stroke="#4285F4" stroke-width="1"/><path d="M90.99 71.08 L112.61 70.95 L85.1 52.21 Z M75.12 113.89 L86.83 76.52 L75.18 38.84 L130.85 76.39 Z M54.96 113.76 L66.42 76.2 L54.9 38.9 L67.31 47.34 L76.4 76.01 L67.38 105.44 Z" fill="#ffffff" stroke="none"/></g><text x="670.0" y="166.0" text-anchor="middle" font-family="sans-serif" font-size="13" font-weight="600" fill="#1e293b">app</text><text x="670.0" y="182.0" text-anchor="middle" font-family="sans-serif" font-size="10" fill="#64748b">cloud_run_v2_service</text><rect x="854.0" y="80.0" width="168.0" height="104.0" rx="10" fill="#ffffff" stroke="#34A853" stroke-width="2"/><g transform="translate(910.00 95.19) scale(0.3247)"><path d="M51.7 152.82 C45.87 152.82 40.28 149.66 37.37 143.8 L3.1 83.87 C0 78.64 0.49 72.56 3.09 68.2 L37.66 8.26 C40.59 2.8 45.82 0 51.14 0 L120.54 0 C125.7 0 130.81 2.54 133.87 7.65 L168.31 67.55 C172.47 73.86 171.04 80.59 168.69 84.34 L134.44 143.89 C132.15 148.72 126.97 152.82 120.31 152.82 Z" fill="#34A853" stroke="none"/><path d="M52.94 95.99 L64.75 81.37 L52.94 70.43 L70.88 51.41 L118.83 55.66 L161 97.71 L134.44 143.89 C132.15 148.72 126.97 152.82 120.31 152.82 L110.08 152.82 Z" fill="#000000" stroke="none" fill-opacity="0.07"/><rect x="0" y="0" width="0" height="0" fill="none" stroke="#34A853" stroke-width="1"/><path d="M118.83 70.43 L85.91 55.65 L52.94 70.43 L52.94 55.66 L85.91 40.92 L118.83 55.66 Z M118.83 95.99 L85.91 81.29 L52.94 95.99 L52.94 81.11 L85.91 66.46 L118.83 81.11 Z M85.73 114.26 L85.79 99.46 L98.35 93.79 L114.94 101.31 Z" fill="#ffffff" stroke="none"/></g><text x="938.0" y="166.0" text-anchor="middle" font-family="sans-serif" font-size="13" font-weight="600" fill="#1e293b">app</text><text x="938.0" y="182.0" text-anchor="middle" font-family="sans-serif" font-size="10" fill="#64748b">firestore_database</text><rect x="1390.0" y="80.0" width="168.0" height="104.0" rx="10" fill="#ffffff" stroke="#EA4335" stroke-width="2"/><g transform="translate(1446.00 95.19) scale(0.3247)"><path d="M51.7 152.79 C45.87 152.79 40.28 149.66 37.37 143.8 L3.1 83.87 C0 78.64 0.49 72.56 3.09 68.2 L37.66 8.26 C40.59 2.8 45.82 0 51.14 0 L120.54 0 C125.7 0 130.81 2.54 133.87 7.65 L168.31 67.55 C172.47 73.86 171.04 80.59 168.69 84.34 L134.44 143.89 C132.15 148.72 126.97 152.79 120.31 152.79 Z" fill="#EA4335" stroke="none"/><path d="M112.6 152.79 L67.79 107.98 L60.55 87.59 L70.2 50.94 L119.49 50.43 L163 94.24 L134.44 143.89 C132.17 148.72 126.97 152.79 120.31 152.79 Z" fill="#000000" stroke="none" fill-opacity="0.07"/><rect x="0" y="0" width="0" height="0" fill="none" stroke="#EA4335" stroke-width="1"/><path d="M85.95 72.6 C92.41 72.6 96.4 67.06 96.4 62.79 C96.4 56.35 91.33 51.85 86.14 51.85 C80.65 51.85 75.29 56.59 75.29 62.11 C75.29 68.57 81.29 72.6 85.95 72.6 Z M86.14 111.11 C95.21 107.72 103.48 101.28 105.89 94.93 L105.89 89.78 C105.89 83.43 94.63 77.84 86.04 77.84 C78.62 77.84 66.2 83.09 66.2 89.55 L66.2 96.15 C70.8 102.85 77.84 108.34 86.14 111.11 Z M85.95 117.89 C77.65 115.89 69.56 110.87 63.99 104.01 C57.1 96.1 52.51 85.98 52.51 75.67 L52.51 50.5 L86.04 35.58 L119.49 50.43 L119.58 72.42 C119.58 83.87 116.04 94.07 109.41 101.93 C104.32 109.04 97.19 115.24 85.95 117.89 Z" fill="#ffffff" stroke="none"/></g><text x="1474.0" y="166.0" text-anchor="middle" font-family="sans-serif" font-size="13" font-weight="600" fill="#1e293b">runtime</text><text x="1474.0" y="182.0" text-anchor="middle" font-family="sans-serif" font-size="10" fill="#64748b">service_account</text><rect x="1658.0" y="80.0" width="168.0" height="104.0" rx="10" fill="#ffffff" stroke="#F9AB00" stroke-width="2"/><g transform="translate(1714.00 95.19) scale(0.3247)"><path d="M51.7 152.79 C45.87 152.79 40.28 149.66 37.37 143.8 L3.1 83.87 C0 78.64 0.49 72.56 3.09 68.2 L37.66 8.26 C40.59 2.8 45.82 0 51.14 0 L120.54 0 C125.7 0 130.81 2.54 133.87 7.65 L168.31 67.55 C172.47 73.86 171.04 80.59 168.69 84.34 L134.44 143.89 C132.15 148.72 126.97 152.79 120.31 152.79 Z" fill="#F9AB00" stroke="none"/><path d="M115.21 152.79 L57 94.57 L66.27 80.77 L56.99 72.73 L114.98 58.29 L158.58 101.93 L134.44 143.89 C132.17 148.72 126.97 152.79 120.31 152.79 Z" fill="#000000" stroke="none" fill-opacity="0.07"/><rect x="0" y="0" width="0" height="0" fill="none" stroke="#F9AB00" stroke-width="1"/><path d="M105.19 68.34 C106.76 68.34 107.87 67.01 107.87 65.43 C107.87 63.16 106.51 62.37 105.25 62.37 C103.12 62.37 102.06 63.71 102.06 65.28 C102.06 67.09 103.38 68.34 105.19 68.34 Z M58.09 73.25 C57.35 73.25 56.42 72.47 56.42 71.67 L56.42 59.65 C56.42 58.27 57.29 57.79 58.87 57.79 L113.33 57.79 C114.63 57.79 115.49 58.07 115.49 59.89 L115.49 70.98 C115.49 72.21 114.81 73.25 113.31 73.25 Z M105.04 90.43 C106.67 90.43 108.01 88.9 108.01 87.4 C108.01 85.69 106.98 84.44 105.09 84.44 C103.3 84.44 102.03 85.46 102.03 87.43 C102.03 88.83 103.26 90.43 105.04 90.43 Z M58.65 95.08 C57.23 95.08 56.42 94.33 56.42 93.24 L56.42 81.5 C56.42 80.39 57.16 79.63 58.64 79.63 L112.82 79.63 C114.76 79.63 115.49 80.15 115.49 81.97 L115.49 92.19 C115.49 94.03 114.77 95.08 113.01 95.08 Z" fill="#ffffff" stroke="none"/></g><text x="1742.0" y="166.0" text-anchor="middle" font-family="sans-serif" font-size="13" font-weight="600" fill="#1e293b">assets</text><text x="1742.0" y="182.0" text-anchor="middle" font-family="sans-serif" font-size="10" fill="#64748b">storage_bucket</text><rect x="1122.0" y="80.0" width="168.0" height="104.0" rx="10" fill="#ffffff" stroke="#9AA0A6" stroke-width="2"/><rect x="1178.0" y="92.0" width="56.0" height="56.0" rx="8" fill="#ffffff" stroke="#9AA0A6" stroke-width="2"/><text x="1206.0" y="166.0" text-anchor="middle" font-family="sans-serif" font-size="13" font-weight="600" fill="#1e293b">image</text><text x="1206.0" y="182.0" text-anchor="middle" font-family="sans-serif" font-size="10" fill="#64748b">terraform_data</text></svg>
